<svg xmlns="http://www.w3.org/2000/svg" xmlns:xlink="http://www.w3.org/1999/xlink" xmlns:lucid="lucid" width="1253" height="408.88"><g transform="translate(-18.50000000000003 -258.5)" lucid:page-tab-id="t_c09k8Qs5is"><path d="M339.33 438.94a6 6 0 0 1 6-6h52a6 6 0 0 0 6-6v-8a2.3 2.3 0 0 1 4.02-1.54l27.97 31.08a6.67 6.67 0 0 1 0 8.92l-27.97 31.08a2.3 2.3 0 0 1-4.02-1.54v-8a6 6 0 0 0-6-6h-52a6 6 0 0 1-6-6z" stroke="#000" stroke-opacity="0" fill="#fcce14"/><path d="M460 292.12a6 6 0 0 1 6-6h353.8a6 6 0 0 1 6 6v347.76a6 6 0 0 1-6 6H466a6 6 0 0 1-6-6z" stroke="#edf5ff" stroke-width="3" fill="#edf5ff"/><use xlink:href="#a" transform="matrix(1,0,0,1,465,291.1176470588239) translate(71.141975308642 161.60763888888889)"/><use xlink:href="#b" transform="matrix(1,0,0,1,465,291.1176470588239) translate(219.35185185185185 161.60763888888889)"/><use xlink:href="#c" transform="matrix(1,0,0,1,465,291.1176470588239) translate(126.27777777777779 198.9409722222222)"/><path d="M620 511.88a6 6 0 0 1 6-6h188a6 6 0 0 1 6 6v114c-33.4-20.04-54.2-20.04-66.8-20.04-20 0-46.6 20.04-66.6 20.04-12.4 0-33.4 0-66.6-20.04z" stroke="#6db1ff" fill="#6db1ff"/><use xlink:href="#d" transform="matrix(1,0,0,1,625,510.88235294117646) translate(23.549382716049394 37.46527777777778)"/><use xlink:href="#e" transform="matrix(1,0,0,1,625,510.88235294117646) translate(120.83333333333334 37.46527777777778)"/><use xlink:href="#f" transform="matrix(1,0,0,1,625,510.88235294117646) translate(56.75925925925926 64.13194444444446)"/><path d="M860 438.94a6 6 0 0 1 6-6h52a6 6 0 0 0 6-6v-8a2.3 2.3 0 0 1 4-1.54l28 31.08a6.67 6.67 0 0 1 0 8.92l-28 31.08a2.3 2.3 0 0 1-4-1.54v-8a6 6 0 0 0-6-6h-52a6 6 0 0 1-6-6z" stroke="#000" stroke-opacity="0" fill="#fcce14"/><path d="M980 286a6 6 0 0 1 6-6h258a6 6 0 0 1 6 6v333.88a6 6 0 0 1-6 6H986a6 6 0 0 1-6-6z" fill="#fff"/><path d="M1001.36 280h6.14m12.3 0h6.13m12.28 0h6.16m12.28 0h6.15m12.27 0h6.14m12.3 0h6.14m12.3 0h6.13m12.3 0h6.13m12.3 0h6.13m12.28 0h6.16m12.28 0h6.15m12.27 0h6.14m12.3 0h6.14m12.3 0h3.06l.94.07.9.22.88.35.8.5.72.6.6.72.5.8.37.88.23.9.07.95v2.93m0 11.7v5.87m0 11.72v5.85m0 11.72v5.85m0 11.7v5.87m0 11.7v5.87m0 11.7v5.87m0 11.7v5.87m0 11.7v5.87m0 11.73v5.85m0 11.72v5.86m0 11.7v5.87m0 11.7v5.87m0 11.72v5.86m0 11.7v5.87m0 11.7v5.87m0 11.72v5.85m0 11.7v5.87m0 11.7v5.87m0 11.7v2.94l-.07.94-.22.92-.35.87-.5.8-.6.73-.72.6-.8.5-.88.36-.9.2-.95.08h-3.07m-12.3 0h-6.13m-12.3 0h-6.13m-12.28 0h-6.16m-12.28 0h-6.15m-12.27 0h-6.14m-12.3 0h-6.14m-12.3 0h-6.13m-12.3 0h-6.13m-12.3 0h-6.13m-12.28 0h-6.16m-12.28 0h-6.15m-12.27 0h-6.14m-12.3 0h-6.14m-12.3 0H986l-.94-.07-.9-.2-.88-.37-.8-.5-.72-.6-.6-.72-.5-.8-.37-.86-.23-.92-.07-.94v-2.93m0-11.7v-5.87m0-11.7v-5.87m0-11.7v-5.87m0-11.7v-5.87m0-11.7v-5.87m0-11.73v-5.85m0-11.72v-5.86m0-11.7v-5.87m0-11.7v-5.87m0-11.72v-5.85m0-11.72v-5.85m0-11.7v-5.87m0-11.7v-5.87m0-11.7v-5.87m0-11.7v-5.87m0-11.7v-5.87m0-11.73v-5.85m0-11.72v-5.86m0-11.7V286l.07-.94.22-.9.35-.88.5-.8.6-.72.72-.6.8-.5.88-.37.9-.23.95-.07h3.07" stroke="#979ea8" stroke-width="3" fill="none"/><use xlink:href="#g" transform="matrix(1,0,0,1,985,285) translate(93.73456790123457 17.77777777777778)"/><path d="M1015 318.94a6 6 0 0 1 6-6h188a6 6 0 0 1 6 6v114c-33.4-20.04-54.2-20.04-66.8-20.04-20 0-46.6 20.04-66.6 20.04-12.4 0-33.4 0-66.6-20.04z" stroke="#dfe3e8" fill="#dfe3e8"/><use xlink:href="#d" transform="matrix(1,0,0,1,1020.0000000000002,317.9411764705883) translate(14.876543209876544 48.71527777777778)"/><use xlink:href="#h" transform="matrix(1,0,0,1,1020.0000000000002,317.9411764705883) translate(112.1604938271605 48.71527777777778)"/><path d="M1015 478.94a6 6 0 0 1 6-6h188a6 6 0 0 1 6 6v114c-33.4-20.04-54.2-20.04-66.8-20.04-20 0-46.6 20.04-66.6 20.04-12.4 0-33.4 0-66.6-20.04z" stroke="#dfe3e8" fill="#dfe3e8"/><use xlink:href="#i" transform="matrix(1,0,0,1,1020.0000000000002,477.9411764705883) translate(27.808641975308632 37.46527777777778)"/><use xlink:href="#j" transform="matrix(1,0,0,1,1020.0000000000002,477.9411764705883) translate(4.444444444444443 64.13194444444446)"/><use xlink:href="#k" transform="matrix(1,0,0,1,1020.0000000000002,477.9411764705883) translate(101.72839506172839 64.13194444444446)"/><path d="M40 298.94a6 6 0 0 1 6-6h258a6 6 0 0 1 6 6v333.88a6 6 0 0 1-6 6H46a6 6 0 0 1-6-6z" fill="#fff"/><path d="M61.36 292.94h6.14m12.3 0h6.13m12.28 0h6.16m12.28 0h6.15m12.27 0h6.14m12.3 0h6.14m12.3 0h6.13m12.3 0h6.13m12.3 0h6.13m12.28 0h6.16m12.28 0h6.15m12.27 0h6.14m12.3 0h6.14m12.3 0H304l.94.07.9.24.88.36.8.5.72.6.6.7.5.82.37.87.23.9.07.94v2.93m0 11.7v5.87m0 11.72V337m0 11.73v5.86m0 11.7v5.86m0 11.72v5.85m0 11.72v5.86m0 11.72v5.86m0 11.7v5.87m0 11.72v5.85m0 11.72v5.86m0 11.7v5.87m0 11.7v5.87m0 11.72v5.86m0 11.7v5.87m0 11.7v5.86m0 11.72v5.85m0 11.72v5.86m0 11.72v5.86m0 11.72v2.92l-.07.94-.22.92-.35.87-.5.8-.6.72-.72.6-.8.5-.88.36-.9.22-.95.07h-3.07m-12.3 0h-6.13m-12.3 0h-6.13m-12.28 0h-6.16m-12.28 0h-6.15m-12.27 0h-6.14m-12.3 0h-6.14m-12.3 0h-6.13m-12.3 0h-6.13m-12.3 0h-6.13m-12.28 0h-6.16m-12.28 0H98.2m-12.27 0H79.8m-12.3 0h-6.14m-12.3 0H46l-.94-.07-.9-.22-.88-.36-.8-.5-.72-.6-.6-.72-.5-.8-.37-.87-.23-.92-.07-.94v-2.93m0-11.72v-5.86m0-11.7v-5.87m0-11.72v-5.85m0-11.72v-5.86m0-11.7v-5.87m0-11.7v-5.87m0-11.72v-5.86m0-11.7v-5.87m0-11.7v-5.86m0-11.72v-5.85m0-11.72v-5.86m0-11.72v-5.86m0-11.7v-5.87m0-11.72v-5.85m0-11.72v-5.86m0-11.7v-5.87M40 337v-5.84m0-11.72v-5.86m0-11.7v-2.94l.07-.94.22-.9.35-.88.5-.8.6-.72.72-.6.8-.5.88-.37.9-.22.95-.06h3.07" stroke="#979ea8" stroke-width="3" fill="none"/><g><use xlink:href="#l" transform="matrix(1,0,0,1,45.00000000000003,297.94117647058835) translate(102.96296296296296 17.77777777777778)"/></g><path d="M75 331.88a6 6 0 0 1 6-6h188a6 6 0 0 1 6 6v114c-33.4-20.04-54.2-20.04-66.8-20.04-20 0-46.6 20.04-66.6 20.04-12.4 0-33.4 0-66.6-20.04z" stroke="#fff7a1" fill="#fff7a1"/><g><use xlink:href="#d" transform="matrix(1,0,0,1,80.00000000000003,330.88235294117663) translate(24.16666666666667 48.71527777777778)"/><use xlink:href="#m" transform="matrix(1,0,0,1,80.00000000000003,330.88235294117663) translate(121.45061728395062 48.71527777777778)"/></g><path d="M75 491.88a6 6 0 0 1 6-6h188a6 6 0 0 1 6 6v114c-33.4-20.04-54.2-20.04-66.8-20.04-20 0-46.6 20.04-66.6 20.04-12.4 0-33.4 0-66.6-20.04z" stroke="#fff7a1" fill="#fff7a1"/><g><use xlink:href="#n" transform="matrix(1,0,0,1,80.00000000000003,490.8823529411766) translate(6.851851851851848 37.46527777777778)"/><use xlink:href="#o" transform="matrix(1,0,0,1,80.00000000000003,490.8823529411766) translate(99.32098765432097 37.46527777777778)"/><use xlink:href="#p" transform="matrix(1,0,0,1,80.00000000000003,490.8823529411766) translate(46.35802469135802 64.13194444444446)"/></g><defs><path fill="#3a414a" d="M230 0l2-204L168 0h-37L68-204 70 0H24v-248h70l56 185 57-185h69V0h-46" id="q"/><path fill="#3a414a" d="M25-224v-37h50v37H25zM25 0v-190h50V0H25" id="r"/><path fill="#3a414a" d="M195-6C206 82 75 100 31 46c-4-6-6-13-8-21l49-6c3 16 16 24 34 25 40 0 42-37 40-79-11 22-30 35-61 35-53 0-70-43-70-97 0-56 18-96 73-97 30 0 46 14 59 34l2-30h47zm-90-29c32 0 41-27 41-63 0-35-9-62-40-62-32 0-39 29-40 63 0 36 9 62 39 62" id="s"/><path fill="#3a414a" d="M135-150c-39-12-60 13-60 57V0H25l-1-190h47c2 13-1 29 3 40 6-28 27-53 61-41v41" id="t"/><path fill="#3a414a" d="M133-34C117-15 103 5 69 4 32 3 11-16 11-54c-1-60 55-63 116-61 1-26-3-47-28-47-18 1-26 9-28 27l-52-2c7-38 36-58 82-57s74 22 75 68l1 82c-1 14 12 18 25 15v27c-30 8-71 5-69-32zm-48 3c29 0 43-24 42-57-32 0-66-3-65 30 0 17 8 27 23 27" id="u"/><path fill="#3a414a" d="M115-3C79 11 28 4 28-45v-112H4v-33h27l15-45h31v45h36v33H77v99c-1 23 16 31 38 25v30" id="v"/><path fill="#3a414a" d="M110-194c64 0 96 36 96 99 0 64-35 99-97 99-61 0-95-36-95-99 0-62 34-99 96-99zm-1 164c35 0 45-28 45-65 0-40-10-65-43-65-34 0-45 26-45 65 0 36 10 65 43 65" id="w"/><path fill="#3a414a" d="M135-194c87-1 58 113 63 194h-50c-7-57 23-157-34-157-59 0-34 97-39 157H25l-1-190h47c2 12-1 28 3 38 12-26 28-41 61-42" id="x"/><g id="a"><use transform="matrix(0.08641975308641972,0,0,0.08641975308641972,0,0)" xlink:href="#q"/><use transform="matrix(0.08641975308641972,0,0,0.08641975308641972,25.839506172839496,0)" xlink:href="#r"/><use transform="matrix(0.08641975308641972,0,0,0.08641975308641972,34.48148148148147,0)" xlink:href="#s"/><use transform="matrix(0.08641975308641972,0,0,0.08641975308641972,53.40740740740739,0)" xlink:href="#t"/><use transform="matrix(0.08641975308641972,0,0,0.08641975308641972,65.50617283950615,0)" xlink:href="#u"/><use transform="matrix(0.08641975308641972,0,0,0.08641975308641972,82.7901234567901,0)" xlink:href="#v"/><use transform="matrix(0.08641975308641972,0,0,0.08641975308641972,93.07407407407403,0)" xlink:href="#r"/><use transform="matrix(0.08641975308641972,0,0,0.08641975308641972,101.71604938271604,0)" xlink:href="#w"/><use transform="matrix(0.08641975308641972,0,0,0.08641975308641972,120.64197530864195,0)" xlink:href="#x"/></g><path fill="#3a414a" d="M169-182c-1-43-94-46-97-3 18 66 151 10 154 114 3 95-165 93-204 36-6-8-10-19-12-30l50-8c3 46 112 56 116 5-17-69-150-10-154-114-4-87 153-88 188-35 5 8 8 18 10 28" id="y"/><path fill="#3a414a" d="M24-248c120-7 223 5 221 122C244-46 201 0 124 0H24v-248zM76-40c74 7 117-18 117-86 0-67-45-88-117-82v168" id="z"/><path fill="#3a414a" d="M195 0l-88-114-31 24V0H24v-248h52v113l112-113h60L142-143 257 0h-62" id="A"/><g id="b"><use transform="matrix(0.08641975308641972,0,0,0.08641975308641972,0,0)" xlink:href="#y"/><use transform="matrix(0.08641975308641972,0,0,0.08641975308641972,20.740740740740733,0)" xlink:href="#z"/><use transform="matrix(0.08641975308641972,0,0,0.08641975308641972,43.12345679012344,0)" xlink:href="#A"/></g><path fill="#3a414a" d="M24 0v-248h195v40H76v63h132v40H76v65h150V0H24" id="B"/><path fill="#3a414a" d="M185-48c-13 30-37 53-82 52C43 2 14-33 14-96s30-98 90-98c62 0 83 45 84 108H66c0 31 8 55 39 56 18 0 30-7 34-22zm-45-69c5-46-57-63-70-21-2 6-4 13-4 21h74" id="C"/><g id="c"><use transform="matrix(0.08641975308641972,0,0,0.08641975308641972,0,0)" xlink:href="#B"/><use transform="matrix(0.08641975308641972,0,0,0.08641975308641972,20.740740740740733,0)" xlink:href="#x"/><use transform="matrix(0.08641975308641972,0,0,0.08641975308641972,39.66666666666666,0)" xlink:href="#s"/><use transform="matrix(0.08641975308641972,0,0,0.08641975308641972,58.59259259259258,0)" xlink:href="#r"/><use transform="matrix(0.08641975308641972,0,0,0.08641975308641972,67.23456790123456,0)" xlink:href="#x"/><use transform="matrix(0.08641975308641972,0,0,0.08641975308641972,86.16049382716048,0)" xlink:href="#C"/></g><path fill="#3a414a" d="M240 0l2-218c-23 76-54 145-80 218h-23L58-218 59 0H30v-248h44l77 211c21-75 51-140 76-211h43V0h-30" id="D"/><path fill="#3a414a" d="M24-231v-30h32v30H24zM24 0v-190h32V0H24" id="E"/><path fill="#3a414a" d="M177-190C167-65 218 103 67 71c-23-6-38-20-44-43l32-5c15 47 100 32 89-28v-30C133-14 115 1 83 1 29 1 15-40 15-95c0-56 16-97 71-98 29-1 48 16 59 35 1-10 0-23 2-32h30zM94-22c36 0 50-32 50-73 0-42-14-75-50-75-39 0-46 34-46 75s6 73 46 73" id="F"/><path fill="#3a414a" d="M114-163C36-179 61-72 57 0H25l-1-190h30c1 12-1 29 2 39 6-27 23-49 58-41v29" id="G"/><path fill="#3a414a" d="M141-36C126-15 110 5 73 4 37 3 15-17 15-53c-1-64 63-63 125-63 3-35-9-54-41-54-24 1-41 7-42 31l-33-3c5-37 33-52 76-52 45 0 72 20 72 64v82c-1 20 7 32 28 27v20c-31 9-61-2-59-35zM48-53c0 20 12 33 32 33 41-3 63-29 60-74-43 2-92-5-92 41" id="H"/><path fill="#3a414a" d="M59-47c-2 24 18 29 38 22v24C64 9 27 4 27-40v-127H5v-23h24l9-43h21v43h35v23H59v120" id="I"/><path fill="#3a414a" d="M100-194c62-1 85 37 85 99 1 63-27 99-86 99S16-35 15-95c0-66 28-99 85-99zM99-20c44 1 53-31 53-75 0-43-8-75-51-75s-53 32-53 75 10 74 51 75" id="J"/><path fill="#3a414a" d="M117-194c89-4 53 116 60 194h-32v-121c0-31-8-49-39-48C34-167 62-67 57 0H25l-1-190h30c1 10-1 24 2 32 11-22 29-35 61-36" id="K"/><g id="d"><use transform="matrix(0.06172839506172839,0,0,0.06172839506172839,0,0)" xlink:href="#D"/><use transform="matrix(0.06172839506172839,0,0,0.06172839506172839,18.456790123456788,0)" xlink:href="#E"/><use transform="matrix(0.06172839506172839,0,0,0.06172839506172839,23.33333333333333,0)" xlink:href="#F"/><use transform="matrix(0.06172839506172839,0,0,0.06172839506172839,35.679012345679006,0)" xlink:href="#G"/><use transform="matrix(0.06172839506172839,0,0,0.06172839506172839,43.02469135802468,0)" xlink:href="#H"/><use transform="matrix(0.06172839506172839,0,0,0.06172839506172839,55.37037037037036,0)" xlink:href="#I"/><use transform="matrix(0.06172839506172839,0,0,0.06172839506172839,61.5432098765432,0)" xlink:href="#E"/><use transform="matrix(0.06172839506172839,0,0,0.06172839506172839,66.41975308641975,0)" xlink:href="#J"/><use transform="matrix(0.06172839506172839,0,0,0.06172839506172839,78.76543209876543,0)" xlink:href="#K"/></g><path fill="#3a414a" d="M185-189c-5-48-123-54-124 2 14 75 158 14 163 119 3 78-121 87-175 55-17-10-28-26-33-46l33-7c5 56 141 63 141-1 0-78-155-14-162-118-5-82 145-84 179-34 5 7 8 16 11 25" id="L"/><path fill="#3a414a" d="M30-248c118-7 216 8 213 122C240-48 200 0 122 0H30v-248zM63-27c89 8 146-16 146-99s-60-101-146-95v194" id="M"/><path fill="#3a414a" d="M194 0L95-120 63-95V0H30v-248h33v124l119-124h40L117-140 236 0h-42" id="N"/><g id="e"><use transform="matrix(0.06172839506172839,0,0,0.06172839506172839,0,0)" xlink:href="#L"/><use transform="matrix(0.06172839506172839,0,0,0.06172839506172839,14.814814814814813,0)" xlink:href="#M"/><use transform="matrix(0.06172839506172839,0,0,0.06172839506172839,30.80246913580247,0)" xlink:href="#N"/></g><path fill="#3a414a" d="M140-251c81 0 123 46 123 126C263-46 219 4 140 4 59 4 17-45 17-125s42-126 123-126zm0 227c63 0 89-41 89-101s-29-99-89-99c-61 0-89 39-89 99S79-25 140-24" id="O"/><path fill="#3a414a" d="M115-194c55 1 70 41 70 98S169 2 115 4C84 4 66-9 55-30l1 105H24l-1-265h31l2 30c10-21 28-34 59-34zm-8 174c40 0 45-34 45-75s-6-73-45-74c-42 0-51 32-51 76 0 43 10 73 51 73" id="P"/><path fill="#3a414a" d="M135-143c-3-34-86-38-87 0 15 53 115 12 119 90S17 21 10-45l28-5c4 36 97 45 98 0-10-56-113-15-118-90-4-57 82-63 122-42 12 7 21 19 24 35" id="Q"/><g id="f"><use transform="matrix(0.06172839506172839,0,0,0.06172839506172839,0,0)" xlink:href="#O"/><use transform="matrix(0.06172839506172839,0,0,0.06172839506172839,17.28395061728395,0)" xlink:href="#P"/><use transform="matrix(0.06172839506172839,0,0,0.06172839506172839,29.629629629629626,0)" xlink:href="#I"/><use transform="matrix(0.06172839506172839,0,0,0.06172839506172839,35.80246913580247,0)" xlink:href="#E"/><use transform="matrix(0.06172839506172839,0,0,0.06172839506172839,40.67901234567901,0)" xlink:href="#J"/><use transform="matrix(0.06172839506172839,0,0,0.06172839506172839,53.02469135802469,0)" xlink:href="#K"/><use transform="matrix(0.06172839506172839,0,0,0.06172839506172839,65.37037037037037,0)" xlink:href="#Q"/></g><path fill="#3a414a" d="M140-251c80 0 125 45 125 126S219 4 139 4C58 4 15-44 15-125s44-126 125-126zm-1 214c52 0 73-35 73-88 0-50-21-86-72-86-52 0-73 35-73 86s22 88 72 88" id="R"/><path fill="#3a414a" d="M85 4C-2 5 27-109 22-190h50c7 57-23 150 33 157 60-5 35-97 40-157h50l1 190h-47c-2-12 1-28-3-38-12 25-28 42-61 42" id="S"/><path fill="#3a414a" d="M135-194c53 0 70 44 70 98 0 56-19 98-73 100-31 1-45-17-59-34 3 33 2 69 2 105H25l-1-265h48c2 10 0 23 3 31 11-24 29-35 60-35zM114-30c33 0 39-31 40-66 0-38-9-64-40-64-56 0-55 130 0 130" id="T"/><g id="g"><use transform="matrix(0.06172839506172839,0,0,0.06172839506172839,0,0)" xlink:href="#R"/><use transform="matrix(0.06172839506172839,0,0,0.06172839506172839,17.28395061728395,0)" xlink:href="#S"/><use transform="matrix(0.06172839506172839,0,0,0.06172839506172839,30.80246913580247,0)" xlink:href="#v"/><use transform="matrix(0.06172839506172839,0,0,0.06172839506172839,38.148148148148145,0)" xlink:href="#T"/><use transform="matrix(0.06172839506172839,0,0,0.06172839506172839,51.666666666666664,0)" xlink:href="#S"/><use transform="matrix(0.06172839506172839,0,0,0.06172839506172839,65.18518518518518,0)" xlink:href="#v"/></g><path fill="#3a414a" d="M84 4C-5 8 30-112 23-190h32v120c0 31 7 50 39 49 72-2 45-101 50-169h31l1 190h-30c-1-10 1-25-2-33-11 22-28 36-60 37" id="U"/><g id="h"><use transform="matrix(0.06172839506172839,0,0,0.06172839506172839,0,0)" xlink:href="#L"/><use transform="matrix(0.06172839506172839,0,0,0.06172839506172839,14.814814814814813,0)" xlink:href="#I"/><use transform="matrix(0.06172839506172839,0,0,0.06172839506172839,20.98765432098765,0)" xlink:href="#H"/><use transform="matrix(0.06172839506172839,0,0,0.06172839506172839,33.33333333333333,0)" xlink:href="#I"/><use transform="matrix(0.06172839506172839,0,0,0.06172839506172839,39.50617283950617,0)" xlink:href="#U"/><use transform="matrix(0.06172839506172839,0,0,0.06172839506172839,51.85185185185185,0)" xlink:href="#Q"/></g><path fill="#3a414a" d="M190 0L58-211 59 0H30v-248h39L202-35l-2-213h31V0h-41" id="V"/><path fill="#3a414a" d="M100-194c63 0 86 42 84 106H49c0 40 14 67 53 68 26 1 43-12 49-29l28 8c-11 28-37 45-77 45C44 4 14-33 15-96c1-61 26-98 85-98zm52 81c6-60-76-77-97-28-3 7-6 17-6 28h103" id="W"/><path fill="#3a414a" d="M206 0h-36l-40-164L89 0H53L-1-190h32L70-26l43-164h34l41 164 42-164h31" id="X"/><path fill="#3a414a" d="M0 4l72-265h28L28 4H0" id="Y"/><path fill="#3a414a" d="M232-93c-1 65-40 97-104 97C67 4 28-28 28-90v-158h33c8 89-33 224 67 224 102 0 64-133 71-224h33v155" id="Z"/><path fill="#3a414a" d="M85-194c31 0 48 13 60 33l-1-100h32l1 261h-30c-2-10 0-23-3-31C134-8 116 4 85 4 32 4 16-35 15-94c0-66 23-100 70-100zm9 24c-40 0-46 34-46 75 0 40 6 74 45 74 42 0 51-32 51-76 0-42-9-74-50-73" id="aa"/><g id="i"><use transform="matrix(0.06172839506172839,0,0,0.06172839506172839,0,0)" xlink:href="#V"/><use transform="matrix(0.06172839506172839,0,0,0.06172839506172839,15.987654320987653,0)" xlink:href="#W"/><use transform="matrix(0.06172839506172839,0,0,0.06172839506172839,28.333333333333332,0)" xlink:href="#X"/><use transform="matrix(0.06172839506172839,0,0,0.06172839506172839,44.32098765432099,0)" xlink:href="#Y"/><use transform="matrix(0.06172839506172839,0,0,0.06172839506172839,50.49382716049383,0)" xlink:href="#Z"/><use transform="matrix(0.06172839506172839,0,0,0.06172839506172839,66.48148148148148,0)" xlink:href="#P"/><use transform="matrix(0.06172839506172839,0,0,0.06172839506172839,78.82716049382717,0)" xlink:href="#aa"/><use transform="matrix(0.06172839506172839,0,0,0.06172839506172839,91.17283950617285,0)" xlink:href="#H"/><use transform="matrix(0.06172839506172839,0,0,0.06172839506172839,103.51851851851853,0)" xlink:href="#I"/><use transform="matrix(0.06172839506172839,0,0,0.06172839506172839,109.69135802469137,0)" xlink:href="#W"/><use transform="matrix(0.06172839506172839,0,0,0.06172839506172839,122.03703703703705,0)" xlink:href="#aa"/></g><g id="j"><use transform="matrix(0.06172839506172839,0,0,0.06172839506172839,0,0)" xlink:href="#D"/><use transform="matrix(0.06172839506172839,0,0,0.06172839506172839,18.456790123456788,0)" xlink:href="#E"/><use transform="matrix(0.06172839506172839,0,0,0.06172839506172839,23.33333333333333,0)" xlink:href="#F"/><use transform="matrix(0.06172839506172839,0,0,0.06172839506172839,35.679012345679006,0)" xlink:href="#G"/><use transform="matrix(0.06172839506172839,0,0,0.06172839506172839,43.02469135802468,0)" xlink:href="#H"/><use transform="matrix(0.06172839506172839,0,0,0.06172839506172839,55.37037037037036,0)" xlink:href="#I"/><use transform="matrix(0.06172839506172839,0,0,0.06172839506172839,61.5432098765432,0)" xlink:href="#E"/><use transform="matrix(0.06172839506172839,0,0,0.06172839506172839,66.41975308641975,0)" xlink:href="#J"/><use transform="matrix(0.06172839506172839,0,0,0.06172839506172839,78.76543209876543,0)" xlink:href="#K"/></g><path fill="#3a414a" d="M101-234c-31-9-42 10-38 44h38v23H63V0H32v-167H5v-23h27c-7-52 17-82 69-68v24" id="ab"/><g id="k"><use transform="matrix(0.06172839506172839,0,0,0.06172839506172839,0,0)" xlink:href="#D"/><use transform="matrix(0.06172839506172839,0,0,0.06172839506172839,18.456790123456788,0)" xlink:href="#H"/><use transform="matrix(0.06172839506172839,0,0,0.06172839506172839,30.80246913580247,0)" xlink:href="#K"/><use transform="matrix(0.06172839506172839,0,0,0.06172839506172839,43.148148148148145,0)" xlink:href="#E"/><use transform="matrix(0.06172839506172839,0,0,0.06172839506172839,48.02469135802469,0)" xlink:href="#ab"/><use transform="matrix(0.06172839506172839,0,0,0.06172839506172839,54.19753086419753,0)" xlink:href="#W"/><use transform="matrix(0.06172839506172839,0,0,0.06172839506172839,66.54320987654322,0)" xlink:href="#Q"/><use transform="matrix(0.06172839506172839,0,0,0.06172839506172839,77.65432098765433,0)" xlink:href="#I"/></g><path fill="#3a414a" d="M24 0v-248h52V0H24" id="ac"/><g id="l"><use transform="matrix(0.06172839506172839,0,0,0.06172839506172839,0,0)" xlink:href="#ac"/><use transform="matrix(0.06172839506172839,0,0,0.06172839506172839,6.172839506172839,0)" xlink:href="#x"/><use transform="matrix(0.06172839506172839,0,0,0.06172839506172839,19.691358024691358,0)" xlink:href="#T"/><use transform="matrix(0.06172839506172839,0,0,0.06172839506172839,33.20987654320987,0)" xlink:href="#S"/><use transform="matrix(0.06172839506172839,0,0,0.06172839506172839,46.72839506172839,0)" xlink:href="#v"/></g><path fill="#3a414a" d="M30-248c87 1 191-15 191 75 0 78-77 80-158 76V0H30v-248zm33 125c57 0 124 11 124-50 0-59-68-47-124-48v98" id="ad"/><path fill="#3a414a" d="M24 0v-261h32V0H24" id="ae"/><g id="m"><use transform="matrix(0.06172839506172839,0,0,0.06172839506172839,0,0)" xlink:href="#ad"/><use transform="matrix(0.06172839506172839,0,0,0.06172839506172839,14.814814814814813,0)" xlink:href="#ae"/><use transform="matrix(0.06172839506172839,0,0,0.06172839506172839,19.691358024691354,0)" xlink:href="#H"/><use transform="matrix(0.06172839506172839,0,0,0.06172839506172839,32.03703703703703,0)" xlink:href="#K"/></g><path fill="#3a414a" d="M108 0H70L1-190h34L89-25l56-165h34" id="af"/><g id="n"><use transform="matrix(0.06172839506172839,0,0,0.06172839506172839,0,0)" xlink:href="#ad"/><use transform="matrix(0.06172839506172839,0,0,0.06172839506172839,14.814814814814813,0)" xlink:href="#G"/><use transform="matrix(0.06172839506172839,0,0,0.06172839506172839,22.160493827160494,0)" xlink:href="#W"/><use transform="matrix(0.06172839506172839,0,0,0.06172839506172839,34.50617283950617,0)" xlink:href="#af"/><use transform="matrix(0.06172839506172839,0,0,0.06172839506172839,45.61728395061728,0)" xlink:href="#E"/><use transform="matrix(0.06172839506172839,0,0,0.06172839506172839,50.49382716049382,0)" xlink:href="#J"/><use transform="matrix(0.06172839506172839,0,0,0.06172839506172839,62.8395061728395,0)" xlink:href="#U"/><use transform="matrix(0.06172839506172839,0,0,0.06172839506172839,75.18518518518518,0)" xlink:href="#Q"/></g><g id="o"><use transform="matrix(0.06172839506172839,0,0,0.06172839506172839,0,0)" xlink:href="#D"/><use transform="matrix(0.06172839506172839,0,0,0.06172839506172839,18.456790123456788,0)" xlink:href="#H"/><use transform="matrix(0.06172839506172839,0,0,0.06172839506172839,30.80246913580247,0)" xlink:href="#K"/><use transform="matrix(0.06172839506172839,0,0,0.06172839506172839,43.148148148148145,0)" xlink:href="#E"/><use transform="matrix(0.06172839506172839,0,0,0.06172839506172839,48.02469135802469,0)" xlink:href="#ab"/><use transform="matrix(0.06172839506172839,0,0,0.06172839506172839,54.19753086419753,0)" xlink:href="#W"/><use transform="matrix(0.06172839506172839,0,0,0.06172839506172839,66.54320987654322,0)" xlink:href="#Q"/><use transform="matrix(0.06172839506172839,0,0,0.06172839506172839,77.65432098765433,0)" xlink:href="#I"/></g><path fill="#3a414a" d="M87 75C49 33 22-17 22-94c0-76 28-126 65-167h31c-38 41-64 92-64 168S80 34 118 75H87" id="ag"/><path fill="#3a414a" d="M33-261c38 41 65 92 65 168S71 34 33 75H2C39 34 66-17 66-93S39-220 2-261h31" id="ah"/><g id="p"><use transform="matrix(0.06172839506172839,0,0,0.06172839506172839,0,0)" xlink:href="#ag"/><use transform="matrix(0.06172839506172839,0,0,0.06172839506172839,7.345679012345679,0)" xlink:href="#O"/><use transform="matrix(0.06172839506172839,0,0,0.06172839506172839,24.629629629629626,0)" xlink:href="#P"/><use transform="matrix(0.06172839506172839,0,0,0.06172839506172839,36.9753086419753,0)" xlink:href="#I"/><use transform="matrix(0.06172839506172839,0,0,0.06172839506172839,43.148148148148145,0)" xlink:href="#E"/><use transform="matrix(0.06172839506172839,0,0,0.06172839506172839,48.02469135802469,0)" xlink:href="#J"/><use transform="matrix(0.06172839506172839,0,0,0.06172839506172839,60.37037037037037,0)" xlink:href="#K"/><use transform="matrix(0.06172839506172839,0,0,0.06172839506172839,72.71604938271605,0)" xlink:href="#H"/><use transform="matrix(0.06172839506172839,0,0,0.06172839506172839,85.06172839506173,0)" xlink:href="#ae"/><use transform="matrix(0.06172839506172839,0,0,0.06172839506172839,89.93827160493828,0)" xlink:href="#ah"/></g></defs></g></svg>