<svg xmlns="http://www.w3.org/2000/svg" xmlns:xlink="http://www.w3.org/1999/xlink" xmlns:lucid="lucid" width="669.42" height="463.83"><g transform="translate(-521.2075471698333 -413.4013931628734)" lucid:page-tab-id="u7UXwtVj4GMw"><path d="M0 0h1760v1360H0z" fill="#fff"/><path d="M762.37 658.07c0 4.3-3.5 7.8-7.8 7.8s-7.8-3.5-7.8-7.8 3.5-7.8 7.8-7.8 7.8 3.5 7.8 7.8z" stroke="#6f7681" stroke-width="2" fill="#6f7681"/><path d="M542.2 798.9a6 6 0 0 1 6-6h365.34a6 6 0 0 1 6 6v51.33a6 6 0 0 1-6 6H548.2a6 6 0 0 1-6-6z" stroke="#000" stroke-opacity="0" stroke-width="2" fill="#fff" fill-opacity="0"/><use xlink:href="#a" transform="matrix(1,0,0,1,547.2075471698333,797.8957897194954) translate(4.41358024691358 21.15277777777778)"/><use xlink:href="#b" transform="matrix(1,0,0,1,547.2075471698333,797.8957897194954) translate(22.22222222222222 21.15277777777778)"/><use xlink:href="#c" transform="matrix(1,0,0,1,547.2075471698333,797.8957897194954) translate(69.07407407407408 21.15277777777778)"/><use xlink:href="#d" transform="matrix(1,0,0,1,547.2075471698333,797.8957897194954) translate(22.22222222222222 47.81944444444444)"/><path d="M730.87 792.4v-26a6 6 0 0 0-6-6h-50.02a6 6 0 0 1-6-6v-10.1" stroke="#979ea8" fill="none"/><path d="M731.35 792.9h-.95v-.52h.95z" stroke="#979ea8" stroke-width=".05" fill="#979ea8"/><path d="M668.85 729.52l4.63 14.27h-9.27z" stroke="#979ea8" fill="#979ea8"/><path d="M711.8 440.4a6 6 0 0 1 6-6h334a6 6 0 0 1 6 6v51.34a6 6 0 0 1-6 6h-334a6 6 0 0 1-6-6z" stroke="#000" stroke-opacity="0" stroke-width="2" fill="#fff" fill-opacity="0"/><use xlink:href="#a" transform="matrix(1,0,0,1,716.7924528301667,439.4013931628734) translate(4.41358024691358 21.15277777777778)"/><use xlink:href="#e" transform="matrix(1,0,0,1,716.7924528301667,439.4013931628734) translate(22.22222222222222 21.15277777777778)"/><use xlink:href="#a" transform="matrix(1,0,0,1,716.7924528301667,439.4013931628734) translate(4.41358024691358 47.81944444444444)"/><use xlink:href="#f" transform="matrix(1,0,0,1,716.7924528301667,439.4013931628734) translate(22.22222222222222 47.81944444444444)"/><use xlink:href="#d" transform="matrix(1,0,0,1,716.7924528301667,439.4013931628734) translate(251.48148148148144 47.81944444444444)"/><path d="M977.96 798.9a6 6 0 0 1 6-6h179.67a6 6 0 0 1 6 6v51.33a6 6 0 0 1-6 6H983.96a6 6 0 0 1-6-6z" stroke="#000" stroke-opacity="0" stroke-width="2" fill="#fff" fill-opacity="0"/><use xlink:href="#a" transform="matrix(1,0,0,1,982.9591194968332,797.8957897194954) translate(4.41358024691358 21.15277777777778)"/><use xlink:href="#g" transform="matrix(1,0,0,1,982.9591194968332,797.8957897194954) translate(22.22222222222222 21.15277777777778)"/><use xlink:href="#h" transform="matrix(1,0,0,1,982.9591194968332,797.8957897194954) translate(83.76543209876542 21.15277777777778)"/><use xlink:href="#a" transform="matrix(1,0,0,1,982.9591194968332,797.8957897194954) translate(4.41358024691358 47.81944444444444)"/><use xlink:href="#i" transform="matrix(1,0,0,1,982.9591194968332,797.8957897194954) translate(22.22222222222222 47.81944444444444)"/><use xlink:href="#j" transform="matrix(1,0,0,1,982.9591194968332,797.8957897194954) translate(67.90123456790124 47.81944444444444)"/><path d="M941.6 656.77c0 4.3-3.48 7.8-7.78 7.8-4.3 0-7.8-3.5-7.8-7.8s3.5-7.8 7.8-7.8 7.8 3.5 7.8 7.8z" stroke="#6f7681" stroke-width="2" fill="#6f7681"/><path d="M1073.8 792.4v-25.35a6 6 0 0 0-6-6h-40.86a6 6 0 0 1-6-6v-9.46" stroke="#979ea8" fill="none"/><path d="M1074.27 792.9h-.95v-.52h.95z" stroke="#979ea8" stroke-width=".05" fill="#979ea8"/><path d="M1020.95 730.82l4.63 14.27h-9.27z" stroke="#979ea8" fill="#979ea8"/><path d="M884.8 498.24v37.44a6 6 0 0 1-6 6h-28.6a6 6 0 0 0-6 6v21.56" stroke="#979ea8" fill="none"/><path d="M885.27 498.25h-.95v-.5h.95z" stroke="#979ea8" stroke-width=".05" fill="#979ea8"/><path d="M844.2 584l-4.64-14.26h9.27z" stroke="#979ea8" fill="#979ea8"/><g><path d="M607.2 726.9a6 6 0 0 1-6-6V592.64a6 6 0 0 1 6-6h123.3a6 6 0 0 1 6 6V720.9a6 6 0 0 1-6 6z" fill="#fff" fill-opacity="0"/><path d="M601.2 712.88v8.03a6 6 0 0 0 6 6h123.3a6 6 0 0 0 6-6v-8.02" stroke="#979ea8" stroke-width="2" fill="none"/></g><path d="M610.4 618.32a20 20 0 0 1 20-20h76.9a20 20 0 0 1 20 20v76.9a20 20 0 0 1-20 20h-76.9a20 20 0 0 1-20-20z" stroke="#3385e9" stroke-width="2" fill="#3385e9"/><g><use xlink:href="#k" transform="matrix(1,0,0,1,615.3977975561971,603.3169191004637) translate(26.39388888888889 91.52152777777778)"/></g><g><path d="M905.84 586.63a6 6 0 0 1 6 6V720.9a6 6 0 0 1-6 6H782.56a6 6 0 0 1-6-6V592.64a6 6 0 0 1 6-6z" fill="#fff" fill-opacity="0"/><path d="M911.84 600.66v-8.03a6 6 0 0 0-6-6H782.56a6 6 0 0 0-6 6v8.03" stroke="#979ea8" stroke-width="2" fill="none"/></g><path d="M785.75 618.32a20 20 0 0 1 20-20h76.9a20 20 0 0 1 20 20v76.9a20 20 0 0 1-20 20h-76.9a20 20 0 0 1-20-20z" stroke="#73b2ff" stroke-width="2" fill="#73b2ff"/><g><use xlink:href="#l" transform="matrix(1,0,0,1,790.7477749283446,603.3169191004637) translate(26.393888888888902 91.52152777777773)"/></g><g><path d="M959.3 728.2a6 6 0 0 1-6-6V593.94a6 6 0 0 1 6-6h123.28a6 6 0 0 1 6 6V722.2a6 6 0 0 1-6 6z" fill="#fff" fill-opacity="0"/><path d="M953.3 714.18v8.03a6 6 0 0 0 6 6h123.28a6 6 0 0 0 6-6v-8.02" stroke="#979ea8" stroke-width="2" fill="none"/></g><path d="M962.5 619.62a20 20 0 0 1 20-20h76.9a20 20 0 0 1 20 20v76.9a20 20 0 0 1-20 20h-76.9a20 20 0 0 1-20-20z" stroke="#95c5ff" stroke-width="2" fill="#95c5ff"/><g><use xlink:href="#l" transform="matrix(1,0,0,1,967.4946703592047,604.6158078217389) translate(26.393888888888902 91.52152777777773)"/></g><defs><path fill="#3a414a" d="M22-195h174v174H22v-174" id="m"/><use transform="matrix(0.06172839506172839,0,0,0.06172839506172839,0,0)" xlink:href="#m" id="a"/><path fill="#3a414a" d="M190 0L58-211 59 0H30v-248h39L202-35l-2-213h31V0h-41" id="n"/><path fill="#3a414a" d="M100-194c62-1 85 37 85 99 1 63-27 99-86 99S16-35 15-95c0-66 28-99 85-99zM99-20c44 1 53-31 53-75 0-43-8-75-51-75s-53 32-53 75 10 74 51 75" id="o"/><path fill="#3a414a" d="M117-194c89-4 53 116 60 194h-32v-121c0-31-8-49-39-48C34-167 62-67 57 0H25l-1-190h30c1 10-1 24 2 32 11-22 29-35 61-36" id="p"/><g id="b"><use transform="matrix(0.06172839506172839,0,0,0.06172839506172839,0,0)" xlink:href="#n"/><use transform="matrix(0.06172839506172839,0,0,0.06172839506172839,15.987654320987653,0)" xlink:href="#o"/><use transform="matrix(0.06172839506172839,0,0,0.06172839506172839,28.333333333333332,0)" xlink:href="#p"/></g><path fill="#3a414a" d="M115-194c53 0 69 39 70 98 0 66-23 100-70 100C84 3 66-7 56-30L54 0H23l1-261h32v101c10-23 28-34 59-34zm-8 174c40 0 45-34 45-75 0-40-5-75-45-74-42 0-51 32-51 76 0 43 10 73 51 73" id="q"/><path fill="#3a414a" d="M141-36C126-15 110 5 73 4 37 3 15-17 15-53c-1-64 63-63 125-63 3-35-9-54-41-54-24 1-41 7-42 31l-33-3c5-37 33-52 76-52 45 0 72 20 72 64v82c-1 20 7 32 28 27v20c-31 9-61-2-59-35zM48-53c0 20 12 33 32 33 41-3 63-29 60-74-43 2-92-5-92 41" id="r"/><path fill="#3a414a" d="M96-169c-40 0-48 33-48 73s9 75 48 75c24 0 41-14 43-38l32 2c-6 37-31 61-74 61-59 0-76-41-82-99-10-93 101-131 147-64 4 7 5 14 7 22l-32 3c-4-21-16-35-41-35" id="s"/><path fill="#3a414a" d="M143 0L79-87 56-68V0H24v-261h32v163l83-92h37l-77 82L181 0h-38" id="t"/><path fill="#3a414a" d="M206 0h-36l-40-164L89 0H53L-1-190h32L70-26l43-164h34l41 164 42-164h31" id="u"/><path fill="#3a414a" d="M114-163C36-179 61-72 57 0H25l-1-190h30c1 12-1 29 2 39 6-27 23-49 58-41v29" id="v"/><path fill="#3a414a" d="M85-194c31 0 48 13 60 33l-1-100h32l1 261h-30c-2-10 0-23-3-31C134-8 116 4 85 4 32 4 16-35 15-94c0-66 23-100 70-100zm9 24c-40 0-46 34-46 75 0 40 6 74 45 74 42 0 51-32 51-76 0-42-9-74-50-73" id="w"/><path fill="#3a414a" d="M135-143c-3-34-86-38-87 0 15 53 115 12 119 90S17 21 10-45l28-5c4 36 97 45 98 0-10-56-113-15-118-90-4-57 82-63 122-42 12 7 21 19 24 35" id="x"/><path fill="#3a414a" d="M16-82v-28h88v28H16" id="y"/><path fill="#3a414a" d="M210-169c-67 3-38 105-44 169h-31v-121c0-29-5-50-35-48C34-165 62-65 56 0H25l-1-190h30c1 10-1 24 2 32 10-44 99-50 107 0 11-21 27-35 58-36 85-2 47 119 55 194h-31v-121c0-29-5-49-35-48" id="z"/><path fill="#3a414a" d="M115-194c55 1 70 41 70 98S169 2 115 4C84 4 66-9 55-30l1 105H24l-1-265h31l2 30c10-21 28-34 59-34zm-8 174c40 0 45-34 45-75s-6-73-45-74c-42 0-51 32-51 76 0 43 10 73 51 73" id="A"/><path fill="#3a414a" d="M59-47c-2 24 18 29 38 22v24C64 9 27 4 27-40v-127H5v-23h24l9-43h21v43h35v23H59v120" id="B"/><path fill="#3a414a" d="M24-231v-30h32v30H24zM24 0v-190h32V0H24" id="C"/><path fill="#3a414a" d="M24 0v-261h32V0H24" id="D"/><path fill="#3a414a" d="M100-194c63 0 86 42 84 106H49c0 40 14 67 53 68 26 1 43-12 49-29l28 8c-11 28-37 45-77 45C44 4 14-33 15-96c1-61 26-98 85-98zm52 81c6-60-76-77-97-28-3 7-6 17-6 28h103" id="E"/><g id="c"><use transform="matrix(0.06172839506172839,0,0,0.06172839506172839,0,0)" xlink:href="#q"/><use transform="matrix(0.06172839506172839,0,0,0.06172839506172839,12.345679012345679,0)" xlink:href="#r"/><use transform="matrix(0.06172839506172839,0,0,0.06172839506172839,24.691358024691358,0)" xlink:href="#s"/><use transform="matrix(0.06172839506172839,0,0,0.06172839506172839,35.80246913580247,0)" xlink:href="#t"/><use transform="matrix(0.06172839506172839,0,0,0.06172839506172839,46.91358024691358,0)" xlink:href="#u"/><use transform="matrix(0.06172839506172839,0,0,0.06172839506172839,62.901234567901234,0)" xlink:href="#r"/><use transform="matrix(0.06172839506172839,0,0,0.06172839506172839,75.24691358024691,0)" xlink:href="#v"/><use transform="matrix(0.06172839506172839,0,0,0.06172839506172839,82.5925925925926,0)" xlink:href="#w"/><use transform="matrix(0.06172839506172839,0,0,0.06172839506172839,94.93827160493828,0)" xlink:href="#x"/><use transform="matrix(0.06172839506172839,0,0,0.06172839506172839,106.0493827160494,0)" xlink:href="#y"/><use transform="matrix(0.06172839506172839,0,0,0.06172839506172839,113.39506172839508,0)" xlink:href="#s"/><use transform="matrix(0.06172839506172839,0,0,0.06172839506172839,124.50617283950619,0)" xlink:href="#o"/><use transform="matrix(0.06172839506172839,0,0,0.06172839506172839,136.85185185185188,0)" xlink:href="#z"/><use transform="matrix(0.06172839506172839,0,0,0.06172839506172839,155.30864197530866,0)" xlink:href="#A"/><use transform="matrix(0.06172839506172839,0,0,0.06172839506172839,167.65432098765433,0)" xlink:href="#r"/><use transform="matrix(0.06172839506172839,0,0,0.06172839506172839,180,0)" xlink:href="#B"/><use transform="matrix(0.06172839506172839,0,0,0.06172839506172839,186.17283950617283,0)" xlink:href="#C"/><use transform="matrix(0.06172839506172839,0,0,0.06172839506172839,191.04938271604937,0)" xlink:href="#q"/><use transform="matrix(0.06172839506172839,0,0,0.06172839506172839,203.39506172839504,0)" xlink:href="#D"/><use transform="matrix(0.06172839506172839,0,0,0.06172839506172839,208.27160493827157,0)" xlink:href="#E"/></g><path fill="#3a414a" d="M106-169C34-169 62-67 57 0H25v-261h32l-1 103c12-21 28-36 61-36 89 0 53 116 60 194h-32v-121c2-32-8-49-39-48" id="F"/><path fill="#3a414a" d="M177-190C167-65 218 103 67 71c-23-6-38-20-44-43l32-5c15 47 100 32 89-28v-30C133-14 115 1 83 1 29 1 15-40 15-95c0-56 16-97 71-98 29-1 48 16 59 35 1-10 0-23 2-32h30zM94-22c36 0 50-32 50-73 0-42-14-75-50-75-39 0-46 34-46 75s6 73 46 73" id="G"/><g id="d"><use transform="matrix(0.06172839506172839,0,0,0.06172839506172839,0,0)" xlink:href="#s"/><use transform="matrix(0.06172839506172839,0,0,0.06172839506172839,11.11111111111111,0)" xlink:href="#F"/><use transform="matrix(0.06172839506172839,0,0,0.06172839506172839,23.45679012345679,0)" xlink:href="#r"/><use transform="matrix(0.06172839506172839,0,0,0.06172839506172839,35.80246913580247,0)" xlink:href="#p"/><use transform="matrix(0.06172839506172839,0,0,0.06172839506172839,48.148148148148145,0)" xlink:href="#G"/><use transform="matrix(0.06172839506172839,0,0,0.06172839506172839,60.49382716049382,0)" xlink:href="#E"/><use transform="matrix(0.06172839506172839,0,0,0.06172839506172839,72.8395061728395,0)" xlink:href="#x"/></g><path fill="#3a414a" d="M63-220v92h138v28H63V0H30v-248h175v28H63" id="H"/><path fill="#3a414a" d="M84 4C-5 8 30-112 23-190h32v120c0 31 7 50 39 49 72-2 45-101 50-169h31l1 190h-30c-1-10 1-25-2-33-11 22-28 36-60 37" id="I"/><g id="e"><use transform="matrix(0.06172839506172839,0,0,0.06172839506172839,0,0)" xlink:href="#H"/><use transform="matrix(0.06172839506172839,0,0,0.06172839506172839,13.518518518518517,0)" xlink:href="#E"/><use transform="matrix(0.06172839506172839,0,0,0.06172839506172839,25.864197530864196,0)" xlink:href="#r"/><use transform="matrix(0.06172839506172839,0,0,0.06172839506172839,38.20987654320987,0)" xlink:href="#B"/><use transform="matrix(0.06172839506172839,0,0,0.06172839506172839,44.382716049382715,0)" xlink:href="#I"/><use transform="matrix(0.06172839506172839,0,0,0.06172839506172839,56.72839506172839,0)" xlink:href="#v"/><use transform="matrix(0.06172839506172839,0,0,0.06172839506172839,64.07407407407408,0)" xlink:href="#E"/><use transform="matrix(0.06172839506172839,0,0,0.06172839506172839,76.41975308641976,0)" xlink:href="#x"/></g><path fill="#3a414a" d="M160-131c35 5 61 23 61 61C221 17 115-2 30 0v-248c76 3 177-17 177 60 0 33-19 50-47 57zm-97-11c50-1 110 9 110-42 0-47-63-36-110-37v79zm0 115c55-2 124 14 124-45 0-56-70-42-124-44v89" id="J"/><g id="f"><use transform="matrix(0.06172839506172839,0,0,0.06172839506172839,0,0)" xlink:href="#J"/><use transform="matrix(0.06172839506172839,0,0,0.06172839506172839,14.814814814814813,0)" xlink:href="#r"/><use transform="matrix(0.06172839506172839,0,0,0.06172839506172839,27.160493827160494,0)" xlink:href="#s"/><use transform="matrix(0.06172839506172839,0,0,0.06172839506172839,38.27160493827161,0)" xlink:href="#t"/><use transform="matrix(0.06172839506172839,0,0,0.06172839506172839,49.38271604938272,0)" xlink:href="#u"/><use transform="matrix(0.06172839506172839,0,0,0.06172839506172839,65.37037037037038,0)" xlink:href="#r"/><use transform="matrix(0.06172839506172839,0,0,0.06172839506172839,77.71604938271606,0)" xlink:href="#v"/><use transform="matrix(0.06172839506172839,0,0,0.06172839506172839,85.06172839506175,0)" xlink:href="#w"/><use transform="matrix(0.06172839506172839,0,0,0.06172839506172839,97.40740740740743,0)" xlink:href="#x"/><use transform="matrix(0.06172839506172839,0,0,0.06172839506172839,108.51851851851855,0)" xlink:href="#y"/><use transform="matrix(0.06172839506172839,0,0,0.06172839506172839,115.86419753086423,0)" xlink:href="#s"/><use transform="matrix(0.06172839506172839,0,0,0.06172839506172839,126.97530864197536,0)" xlink:href="#o"/><use transform="matrix(0.06172839506172839,0,0,0.06172839506172839,139.32098765432102,0)" xlink:href="#z"/><use transform="matrix(0.06172839506172839,0,0,0.06172839506172839,157.7777777777778,0)" xlink:href="#A"/><use transform="matrix(0.06172839506172839,0,0,0.06172839506172839,170.12345679012347,0)" xlink:href="#r"/><use transform="matrix(0.06172839506172839,0,0,0.06172839506172839,182.46913580246914,0)" xlink:href="#B"/><use transform="matrix(0.06172839506172839,0,0,0.06172839506172839,188.64197530864197,0)" xlink:href="#C"/><use transform="matrix(0.06172839506172839,0,0,0.06172839506172839,193.5185185185185,0)" xlink:href="#q"/><use transform="matrix(0.06172839506172839,0,0,0.06172839506172839,205.86419753086417,0)" xlink:href="#D"/><use transform="matrix(0.06172839506172839,0,0,0.06172839506172839,210.7407407407407,0)" xlink:href="#E"/></g><path fill="#3a414a" d="M240 0l2-218c-23 76-54 145-80 218h-23L58-218 59 0H30v-248h44l77 211c21-75 51-140 76-211h43V0h-30" id="K"/><g id="g"><use transform="matrix(0.06172839506172839,0,0,0.06172839506172839,0,0)" xlink:href="#K"/><use transform="matrix(0.06172839506172839,0,0,0.06172839506172839,18.456790123456788,0)" xlink:href="#C"/><use transform="matrix(0.06172839506172839,0,0,0.06172839506172839,23.33333333333333,0)" xlink:href="#p"/><use transform="matrix(0.06172839506172839,0,0,0.06172839506172839,35.679012345679006,0)" xlink:href="#o"/><use transform="matrix(0.06172839506172839,0,0,0.06172839506172839,48.02469135802468,0)" xlink:href="#v"/></g><g id="h"><use transform="matrix(0.06172839506172839,0,0,0.06172839506172839,0,0)" xlink:href="#s"/><use transform="matrix(0.06172839506172839,0,0,0.06172839506172839,11.11111111111111,0)" xlink:href="#F"/><use transform="matrix(0.06172839506172839,0,0,0.06172839506172839,23.45679012345679,0)" xlink:href="#r"/><use transform="matrix(0.06172839506172839,0,0,0.06172839506172839,35.80246913580247,0)" xlink:href="#p"/><use transform="matrix(0.06172839506172839,0,0,0.06172839506172839,48.148148148148145,0)" xlink:href="#G"/><use transform="matrix(0.06172839506172839,0,0,0.06172839506172839,60.49382716049382,0)" xlink:href="#E"/><use transform="matrix(0.06172839506172839,0,0,0.06172839506172839,72.8395061728395,0)" xlink:href="#x"/></g><g id="i"><use transform="matrix(0.06172839506172839,0,0,0.06172839506172839,0,0)" xlink:href="#J"/><use transform="matrix(0.06172839506172839,0,0,0.06172839506172839,14.814814814814813,0)" xlink:href="#I"/><use transform="matrix(0.06172839506172839,0,0,0.06172839506172839,27.160493827160494,0)" xlink:href="#G"/></g><path fill="#3a414a" d="M101-234c-31-9-42 10-38 44h38v23H63V0H32v-167H5v-23h27c-7-52 17-82 69-68v24" id="L"/><path fill="#3a414a" d="M141 0L90-78 38 0H4l68-98-65-92h35l48 74 47-74h35l-64 92 68 98h-35" id="M"/><g id="j"><use transform="matrix(0.06172839506172839,0,0,0.06172839506172839,0,0)" xlink:href="#L"/><use transform="matrix(0.06172839506172839,0,0,0.06172839506172839,6.172839506172839,0)" xlink:href="#C"/><use transform="matrix(0.06172839506172839,0,0,0.06172839506172839,11.049382716049383,0)" xlink:href="#M"/><use transform="matrix(0.06172839506172839,0,0,0.06172839506172839,22.160493827160494,0)" xlink:href="#E"/><use transform="matrix(0.06172839506172839,0,0,0.06172839506172839,34.50617283950617,0)" xlink:href="#x"/></g><path fill="#fff" d="M577-172H474V0h-85v-172H25v-67l244-469h93L124-246h264v-199h86v199h103v74" id="N"/><use transform="matrix(0.08888888888888889,0,0,0.08888888888888889,0,0)" xlink:href="#N" id="k"/><path fill="#fff" d="M539-74V0H105v-73h192v-544l-191 99-35-64 236-126h78v634h154" id="O"/><use transform="matrix(0.08888888888888884,0,0,0.08888888888888884,0,0)" xlink:href="#O" id="l"/></defs></g></svg>