<svg width="36" height="36" fill="none" xmlns="http://www.w3.org/2000/svg" aria-labelledby="undefined_label"><path d="M27 22h-1v4h-4v1h4v4h1v-4h4v-1h-4v-4Z" fill="#1F447D"></path><path d="M18 27h-1v3h-3v1h3v3h1v-3h3v-1h-3v-3ZM31 14h-1v3h-3v1h3v3h1v-3h3v-1h-3v-3Z" fill="#5B6591"></path><path d="M18 17v-6h-1v6h-6v1h6v6h1v-6h6v-1h-6Z" fill="#EB912C"></path><path d="M9 4H8v4H4v1h4v4h1V9h4V8H9V4Z" fill="#E8762C"></path><path d="M5 14H4v3H1v1h3v3h1v-3h3v-1H5v-3ZM27 4h-1v4h-4v1h4v4h1V9h4V8h-4V4ZM18 1h-1v3h-3v1h3v3h1V5h3V4h-3V1Z" fill="#59879B"></path><path d="M9 22H8v4H4v1h4v4h1v-4h4v-1H9v-4Z" fill="#C72035"></path></svg>